<svg width="200" height="170" viewBox="0 0 200 170" fill="none" xmlns="http://www.w3.org/2000/svg">
<g clip-path="url(#clip0_164_336)">
<path d="M19.8306 4.57703L32.8909 48.2136L34.414 54.1567C14.8787 55.5677 0.0696892 72.1686 0.0696892 92.1227C0.0706062 127.947 2.61443 169.796 27.4511 169.796C37.2953 169.796 39.8694 163.017 39.8694 163.017C39.8694 163.017 47.5706 163.306 55.556 160.401C62.7455 157.786 66.0137 151.487 66.0137 151.487L38.5627 150.833C38.5627 150.833 35.2944 105.714 54.2492 105.714C73.2032 105.714 58.8243 165.218 90.1966 165.218C107.19 165.218 200 165.218 200 165.218C200 165.218 154.902 87.4062 64.7061 87.4062L104.575 63.8668L154.902 93.2915C154.902 93.2915 164.706 54.0586 122.222 54.0586C104.78 54.0586 87.7307 54.0586 73.5287 54.0586L67.3196 29.2109L58.1548 37.943L47.3 4.57703H66.6657V-2.04644e-05H-0.000923388V4.57703H19.8306V4.57703ZM55.1131 48.2136L56.6115 54.0586C54.7289 54.0586 52.9563 54.0586 51.3074 54.0586L45.0983 29.2109L35.9335 37.943L25.0787 4.57703H42.0528L55.1131 48.2136Z" fill="#102D69"/>
<path d="M28.3147 157.579C27.1663 158.728 27.1663 160.591 28.3147 161.74C29.4632 162.889 31.3253 162.889 32.4737 161.74C33.6222 160.591 33.6222 158.728 32.4737 157.579C31.3253 156.43 29.4632 156.43 28.3147 157.579Z" fill="white"/>
</g>
<defs>
<clipPath id="clip0_164_336">
<rect width="200" height="169.796" fill="white" transform="matrix(-1 0 0 -1 200 169.796)"/>
</clipPath>
</defs>
</svg>
