<svg width="130" height="134" viewBox="0 0 130 134" fill="none" xmlns="http://www.w3.org/2000/svg">
<g clip-path="url(#clip0_137_354)">
<path d="M113.702 130.388L103.298 95.9505L101.741 89.9284C117.967 85.3874 129.706 70.4046 129.37 52.8357C128.872 26.8363 125.467 0 107.632 0C99.79 0 97.7395 5.3497 97.7395 5.3497C97.7395 5.3497 91.6045 5.12098 85.2434 7.41408C79.5165 9.47846 76.9132 14.4494 76.9132 14.4494L98.7809 14.9651L98.8041 28.1883L0.5 123.361H17.4726C28.8459 123.361 39.1923 116.839 44.014 106.63L51.2374 91.3374H70.9257L75.8717 110.946L83.1724 104.055L91.8194 130.387H76.3921V133.999H129.499V130.387H113.702V130.388ZM85.5959 95.9505L84.4023 91.3374H88.6276L93.5737 110.946L100.874 104.055L109.521 130.387H95.9998L85.5959 95.9505Z" fill="#273883"/>
<path d="M105.289 10.3206C106.583 10.3206 107.632 9.28104 107.632 7.99867C107.632 6.71629 106.583 5.67673 105.289 5.67673C103.995 5.67673 102.946 6.71629 102.946 7.99867C102.946 9.28104 103.995 10.3206 105.289 10.3206Z" fill="#FBFCFF"/>
</g>
<defs>
<clipPath id="clip0_137_354">
<rect width="129" height="134" fill="white" transform="translate(0.5)"/>
</clipPath>
</defs>
</svg>
